<svg width="55" height="45" viewBox="0 0 55 45" fill="none" xmlns="http://www.w3.org/2000/svg">
<path d="M19.25 22.5C25.2656 22.5 30.25 17.6016 30.25 11.5C30.25 5.48438 25.2656 0.5 19.25 0.5C13.1484 0.5 8.25 5.48438 8.25 11.5C8.25 17.6016 13.1484 22.5 19.25 22.5ZM19.25 4.625C23.0312 4.625 26.125 7.71875 26.125 11.5C26.125 15.3672 23.0312 18.375 19.25 18.375C15.3828 18.375 12.375 15.3672 12.375 11.5C12.375 7.71875 15.3828 4.625 19.25 4.625ZM23.5469 26.625H14.8672C6.61719 26.625 0 33.3281 0 41.5781C0 43.2109 1.28906 44.5 2.92188 44.5H35.4922C37.125 44.5 38.5 43.2109 38.5 41.5781C38.5 33.3281 31.7969 26.625 23.5469 26.625ZM4.125 40.375C4.72656 35.0469 9.28125 30.75 14.8672 30.75H23.5469C29.1328 30.75 33.6016 35.0469 34.2891 40.375H4.125ZM41.1641 28H34.8047C38.7578 31.2656 41.25 36.1641 41.25 41.5781C41.25 42.6953 40.9062 43.6406 40.3906 44.5H52.25C53.7109 44.5 55 43.2969 55 41.75C55 34.1875 48.8125 28 41.1641 28ZM37.125 22.5C42.3672 22.5 46.75 18.2031 46.75 12.875C46.75 7.63281 42.3672 3.25 37.125 3.25C34.8906 3.25 32.9141 4.02344 31.3672 5.22656C32.3125 7.11719 33 9.26562 33 11.5C33 14.5938 31.9688 17.4297 30.25 19.6641C31.9688 21.4688 34.375 22.5 37.125 22.5Z" fill="#4FA58C"/>
</svg>
